<svg width="438" height="43" viewBox="0 0 438 43" fill="none" xmlns="http://www.w3.org/2000/svg">
<path d="M0.529412 21.51C1.18941 17.19 2.14941 13.62 3.40941 10.8C4.66941 7.98 6.28941 5.82 8.26941 4.32C10.2494 2.82 12.5894 1.77 15.2894 1.17C18.0494 0.569999 21.2294 0.269999 24.8294 0.269999C26.9894 0.269999 29.0594 0.359999 31.0394 0.539998C33.0794 0.659999 35.0894 0.929999 37.0694 1.35C38.4494 1.59 39.3194 1.89 39.6794 2.25C40.0994 2.61 40.2794 3.06 40.2194 3.6L40.1294 4.77C39.2294 4.29 37.8494 3.87 35.9894 3.51C34.1294 3.15 32.1494 2.88 30.0494 2.7C27.9494 2.52 26.0594 2.43 24.3794 2.43C19.9394 2.43 16.3094 3.03 13.4894 4.23C10.7294 5.37 8.59941 7.35 7.09941 10.17C5.59941 12.93 4.51941 16.71 3.85941 21.51C3.19941 26.37 3.16941 30.21 3.76941 33.03C4.36941 35.85 5.89941 37.86 8.35941 39.06C10.8194 40.2 14.4194 40.77 19.1594 40.77C20.8394 40.77 22.7294 40.68 24.8294 40.5C26.9294 40.32 28.9094 40.05 30.7694 39.69C32.6894 39.33 34.1894 38.94 35.2694 38.52L35.0894 39.6C35.0294 40.08 34.7294 40.53 34.1894 40.95C33.7094 41.31 32.7494 41.61 31.3094 41.85C29.2094 42.27 27.1094 42.54 25.0094 42.66C22.9694 42.84 20.8994 42.93 18.7994 42.93C15.0194 42.93 11.8094 42.63 9.16941 42.03C6.58941 41.43 4.54941 40.38 3.04941 38.88C1.60941 37.32 0.679412 35.16 0.259412 32.4C-0.160588 29.58 -0.0705882 25.95 0.529412 21.51Z" fill="white"/>
<path d="M62.2905 42.84C59.3505 42.84 56.6505 42.6 54.1905 42.12C51.7305 41.64 49.6605 40.71 47.9805 39.33C46.3605 37.89 45.2505 35.76 44.6505 32.94C44.0505 30.06 44.0505 26.22 44.6505 21.42C45.3705 16.5 46.4805 12.6 47.9805 9.72C49.5405 6.84 51.4005 4.71 53.5605 3.33C55.7805 1.95 58.2105 1.05 60.8505 0.63C63.4905 0.21 66.2805 0 69.2205 0C72.1605 0 74.8305 0.24 77.2305 0.719999C79.6905 1.2 81.7605 2.16 83.4405 3.6C85.1205 4.98 86.2605 7.11 86.8605 9.99C87.4605 12.81 87.4305 16.62 86.7705 21.42C86.0505 26.34 84.9405 30.24 83.4405 33.12C81.9405 36 80.0805 38.13 77.8605 39.51C75.7005 40.89 73.3005 41.79 70.6605 42.21C68.0805 42.63 65.2905 42.84 62.2905 42.84ZM63.0105 40.77C65.7705 40.77 68.2905 40.56 70.5705 40.14C72.8505 39.66 74.8305 38.79 76.5105 37.53C78.2505 36.21 79.6905 34.26 80.8305 31.68C81.9705 29.1 82.8405 25.71 83.4405 21.51C84.0405 17.25 84.1005 13.83 83.6205 11.25C83.2005 8.67 82.3005 6.72 80.9205 5.4C79.6005 4.08 77.8605 3.21 75.7005 2.79C73.6005 2.31 71.1405 2.07 68.3205 2.07C65.5005 2.07 62.9805 2.31 60.7605 2.79C58.5405 3.21 56.5605 4.08 54.8205 5.4C53.1405 6.72 51.7305 8.67 50.5905 11.25C49.4505 13.83 48.6105 17.25 48.0705 21.51C47.4705 25.71 47.3505 29.1 47.7105 31.68C48.1305 34.26 49.0005 36.21 50.3205 37.53C51.7005 38.79 53.4405 39.66 55.5405 40.14C57.7005 40.56 60.1905 40.77 63.0105 40.77Z" fill="white"/>
<path d="M124.703 23.67C124.703 23.67 123.713 23.67 121.733 23.67C119.813 23.67 117.173 23.67 113.813 23.67C110.513 23.67 106.793 23.7 102.653 23.76L100.133 42.21H96.9834L102.203 5.04C102.443 3.3 102.953 2.19 103.733 1.71C104.573 1.17 105.683 0.87 107.063 0.81C107.963 0.749999 109.073 0.719999 110.393 0.719999C111.773 0.719999 113.213 0.719999 114.713 0.719999C116.273 0.66 117.833 0.63 119.393 0.63C121.013 0.63 122.573 0.63 124.073 0.63C125.633 0.63 127.013 0.66 128.213 0.719999C129.473 0.78 130.463 0.84 131.183 0.899999C134.243 1.2 136.313 2.28 137.393 4.14C138.533 5.94 138.863 8.52 138.383 11.88C137.963 14.34 137.213 16.41 136.133 18.09C135.053 19.71 133.643 20.94 131.903 21.78C131.783 21.84 131.603 21.9 131.363 21.96C131.123 22.02 130.913 22.05 130.733 22.05V22.14C130.853 22.14 131.003 22.14 131.183 22.14C131.363 22.14 131.513 22.14 131.633 22.14C133.133 22.44 134.153 22.98 134.693 23.76C135.293 24.48 135.623 25.35 135.683 26.37C135.743 27.33 135.713 28.29 135.593 29.25L134.063 40.59C133.943 40.95 133.883 41.31 133.883 41.67C133.943 41.97 134.003 42.15 134.063 42.21H132.173C131.693 42.21 131.303 42.12 131.003 41.94C130.703 41.7 130.613 41.07 130.733 40.05L132.443 28.89C132.743 27.03 132.533 25.71 131.813 24.93C131.093 24.09 129.713 23.67 127.673 23.67H124.703ZM103.013 21.51C103.973 21.51 105.443 21.54 107.423 21.6C109.463 21.6 111.653 21.63 113.993 21.69C116.393 21.69 118.583 21.69 120.563 21.69C122.603 21.69 124.103 21.69 125.063 21.69C127.343 21.69 129.443 21 131.363 19.62C133.283 18.24 134.513 15.69 135.053 11.97C135.413 9.39 135.203 7.35 134.423 5.85C133.643 4.29 132.173 3.39 130.013 3.15C128.633 2.97 126.893 2.85 124.793 2.79C122.753 2.73 120.623 2.73 118.403 2.79C116.183 2.79 114.143 2.82 112.283 2.88C110.423 2.88 108.983 2.91 107.963 2.97C107.723 2.97 107.243 3.09 106.523 3.33C105.863 3.57 105.443 4.26 105.263 5.4L103.013 21.51Z" fill="white"/>
<path d="M149.454 42.21L154.944 2.88C155.064 2.4 155.124 2.04 155.124 1.8C155.184 1.5 155.304 1.26 155.484 1.08C155.724 0.9 156.054 0.81 156.474 0.81H189.324L189.144 2.97H158.094L155.754 19.17H184.374L184.104 21.33H155.484L152.874 40.05H183.924L183.564 42.21H149.454Z" fill="white"/>
<path d="M252.07 42.2101C252.85 36.5701 253.63 30.9301 254.41 25.2901C255.19 19.6501 255.97 14.0101 256.75 8.37006C257.05 5.85006 257.68 3.96006 258.64 2.70006C259.6 1.44006 261.55 0.810059 264.49 0.810059C268.15 0.810059 271.81 0.810059 275.47 0.810059C279.13 0.810059 282.79 0.810059 286.45 0.810059C290.11 0.810059 293.77 0.810059 297.43 0.810059C300.37 0.810059 303.01 1.20006 305.35 1.98006C307.75 2.76006 309.55 4.17006 310.75 6.21006C312.01 8.25006 312.37 11.1601 311.83 14.9401C310.99 20.9401 309.04 25.1101 305.98 27.4501C302.92 29.7901 299.17 30.9301 294.73 30.8701C290.89 30.8101 286.78 30.7801 282.4 30.7801C278.08 30.7801 273.97 30.7501 270.07 30.6901C270.49 27.6301 270.79 25.4101 270.97 24.0301C271.15 22.5901 271.42 21.6901 271.78 21.3301C272.2 20.9101 272.89 20.7001 273.85 20.7001C275.35 20.7001 276.82 20.7001 278.26 20.7001C279.76 20.7001 281.26 20.7001 282.76 20.7001C284.26 20.7001 285.76 20.7001 287.26 20.7001C287.98 20.7001 288.58 20.5201 289.06 20.1601C289.6 19.7401 290.05 19.1401 290.41 18.3601C290.77 17.5801 291.01 16.6501 291.13 15.5701C291.37 14.0101 291.28 12.9001 290.86 12.2401C290.5 11.5801 289.75 11.2501 288.61 11.2501C287.29 11.2501 286.09 11.2501 285.01 11.2501C283.99 11.2501 282.94 11.2501 281.86 11.2501C280.78 11.2501 279.58 11.2501 278.26 11.2501C277.84 11.2501 277.48 11.4301 277.18 11.7901C276.88 12.0901 276.7 12.3301 276.64 12.5101C275.92 17.4901 275.2 22.4401 274.48 27.3601C273.82 32.2801 273.16 37.2301 272.5 42.2101H252.07Z" fill="#BDEE63"/>
<path d="M231.406 0.80957H244.276C246.916 0.80957 248.716 1.05027 249.676 1.53027C250.696 1.95031 251.205 2.79008 251.205 4.0498C251.265 5.30977 251.116 7.16998 250.756 9.62988L249.316 19.71C248.836 23.07 248.266 26.0103 247.606 28.5303C247.006 31.0501 246.076 33.2099 244.816 35.0098C243.616 36.7498 241.906 38.1602 239.686 39.2402C237.526 40.3202 234.676 41.1299 231.136 41.6699C227.656 42.1499 223.246 42.3896 217.906 42.3896C212.386 42.3896 207.886 42.1499 204.406 41.6699C200.986 41.1299 198.346 40.3202 196.486 39.2402C194.686 38.1602 193.456 36.7796 192.796 35.0996C192.196 33.4197 191.956 31.4101 192.076 29.0703C192.256 26.7303 192.556 24.0297 192.976 20.9697L194.596 9.62988C194.956 7.16996 195.285 5.30978 195.585 4.0498C195.945 2.78998 196.666 1.95031 197.745 1.53027C198.825 1.05028 200.656 0.809575 203.236 0.80957H212.47C212.439 0.880808 212.416 0.956736 212.402 1.03613L209.147 19.4424C209.039 20.0548 209.509 20.6171 210.131 20.6172H220.339C220.951 20.6173 221.419 21.1618 221.328 21.7666L219.332 34.9863C219.175 36.0317 220.536 36.5747 221.141 35.708L236.84 13.2334C237.303 12.5706 236.829 11.6603 236.021 11.6602H226.047C225.341 11.6598 224.858 10.9483 225.119 10.292L228.576 1.5791C228.683 1.3095 228.662 1.03114 228.554 0.795898C229.397 0.800214 230.343 0.804112 231.406 0.80957Z" fill="#BDEE63"/>
<path d="M318.346 11.1724H339.296L338.949 13.6293H330.725L328.518 29.319C328.46 29.7213 328.374 30.0517 328.258 30.3103C328.172 30.569 328.013 30.7557 327.782 30.8707C327.551 30.9569 327.205 31 326.743 31H323.843L326.267 13.6293H318L318.346 11.1724Z" fill="white"/>
<path d="M348.573 31L351.084 13.0259C351.17 12.5661 351.242 12.2069 351.3 11.9483C351.358 11.6897 351.502 11.5029 351.733 11.3879C351.993 11.2443 352.368 11.1724 352.858 11.1724H370.864L370.561 13.6293H355.499L354.633 19.4483H368.44L368.094 21.9052H354.33L353.378 28.5431H368.44L368.094 31H348.573Z" fill="white"/>
<path d="M377.809 31L386.336 14.2328C386.856 13.1983 387.505 12.408 388.284 11.8621C389.063 11.2874 390.232 11 391.79 11C393.175 11 394.185 11.2586 394.82 11.7759C395.483 12.2931 395.945 13.1121 396.205 14.2328L400.014 31H395.209L394.084 25.8276H383.782L381.272 31H377.809ZM384.778 23.9741H393.521L391.963 16.0862C391.876 15.7126 391.747 15.3822 391.573 15.0948C391.4 14.8075 391.04 14.6638 390.491 14.6638C389.828 14.6638 389.38 14.8218 389.15 15.1379C388.919 15.4253 388.717 15.7414 388.544 16.0862L384.778 23.9741Z" fill="white"/>
<path d="M411.75 31L414.261 13.0259C414.347 12.4512 414.448 12.0345 414.564 11.7759C414.679 11.5172 414.867 11.3592 415.127 11.3017C415.386 11.2155 415.776 11.1724 416.295 11.1724H419.585L424.13 25.6121L424.173 25.9569L424.259 25.8707L424.389 25.5259L432.83 11.1724H436.422C437.143 11.1724 437.605 11.2586 437.807 11.431C438.009 11.6035 438.052 12.0345 437.937 12.7241L435.6 29.4052C435.542 29.8937 435.441 30.2529 435.297 30.4828C435.181 30.6839 434.994 30.8276 434.734 30.9138C434.503 30.9713 434.157 31 433.695 31H430.839L432.959 15.9569L432.613 16.7759L424.259 31H421.359L417.074 17.0345L416.988 16.2586L414.953 31H411.75Z" fill="white"/>
</svg>
